<svg viewBox="0 0 700 60.9" xmlns="http://www.w3.org/2000/svg" xmlns:xlink="http://www.w3.org/1999/xlink" id="Layer_1" overflow="hidden"><defs></defs><path d="M319.11 31.81C316.53 31.81 315.38 30.11 315.38 26.48 315.38 22.85 316.54 21 319.11 21L346.69 21 346.69 18.51C346.69 13.46 339.08 11.31 328.11 11.31 317.14 11.31 309.64 13.47 309.64 18.51L309.64 41.74C309.64 46.67 317.03 48.82 328.11 48.82 335.47 48.82 341.32 48.03 343.93 46.04 344.359 45.6682 344.721 45.225 345 44.73 345.12 44.52 345.22 44.31 345.32 44.09L345.56 43.48C345.827 42.6262 346.293 41.8481 346.92 41.21 348.3 39.83 350.92 39.21 354.17 39.21 359.32 39.21 362.35 40.69 362.35 44.09 362.37 59 341.76 61 328.11 61 303.39 61 293.85 54.18 293.85 42.92L293.85 18.17C293.85 6.9 303.39 0.08 328.11 0.08 352.83 0.08 362.25 6.9 362.25 18.17L362.25 22.17C362.25 29.02 358.86 31.83 352.25 31.83ZM261.43 61C274.79 61 281 55.47 281 44.16L281 6.16C281 1.93 278.15 0.4 273.26 0.4 268.57 0.4 265.4 1.93 265.4 6.12L265.4 43.12C265.4 46.79 263.57 48.52 258.47 48.52L221.56 48.52C216.46 48.52 214.56 46.79 214.56 43.12L214.56 6.12C214.56 1.93 211.3 0.4 206.56 0.4 201.67 0.4 198.61 1.93 198.61 6.12L198.61 44.12C198.61 55.43 205.24 60.94 218.61 60.94ZM169 55.15C169 59.43 171.85 60.96 176.75 60.96 181.65 60.96 184.6 59.43 184.6 55.15L184.6 7C184.6 2.62 182.05 0.38 176.54 0.38L165.17 0.38C162.32 0.38 160.08 0.88 158.75 2.72L143.75 23.32 128.88 2.74C127.55 0.9 125.2 0.4 122.45 0.4L110.32 0.4C104.91 0.4 102.26 2.64 102.26 7.02L102.26 55.15C102.26 59.43 105.32 60.96 110.11 60.96 114.9 60.96 117.86 59.43 117.86 55.15L117.86 11.21 137 37.41C138.33 39.14 140.47 39.65 143.43 39.65 146.39 39.65 148.52 39.14 149.85 37.41L169 11.21ZM87.32 6.15C87.32 1.97 84.32 0.44 79.32 0.44 74.32 0.44 71.26 1.97 71.26 6.15L71.26 10.9C71.26 15.18 74.53 16.71 79.32 16.71 84.11 16.71 87.32 15.18 87.32 10.9ZM71.32 55.15C71.32 59.43 74.59 60.96 79.38 60.96 84.17 60.96 87.38 59.43 87.38 55.15L87.38 26.79C87.38 22.61 84.38 21.08 79.38 21.08 74.38 21.08 71.32 22.61 71.32 26.79ZM57.5 13.85C60.97 13.85 62.29 11.1 62.29 7.13 62.29 3.16 61 0.4 57.5 0.4L5 0.4C1.52 0.4 0.19 3.05 0.19 7.13 0.19 11.21 1.52 13.85 5 13.85ZM42.92 61C46.39 61 47.71 58.45 47.71 54.27 47.71 50.27 46.39 47.64 42.92 47.64L40.06 47.64C34.46 47.64 32.06 45.91 32.06 41.93L32.06 23.54C32.06 19.26 28.9 17.63 23.8 17.63 18.7 17.63 15.44 19.26 15.44 23.54L15.44 42.32C15.44 54.32 22.58 60.98 40.63 60.98Z" fill-rule="evenodd" transform="translate(-0.19 -0.08)"/><path d="M441.82 47.46 439 47.46C433.39 47.46 431 45.72 431 41.75L431 23.37C431 19.09 427.84 17.46 422.74 17.46 417.64 17.46 414.38 19.09 414.38 23.37L414.38 42.15C414.38 54.15 421.52 60.81 439.57 60.81L441.81 60.81C445.28 60.81 446.6 58.27 446.6 54.08 446.6 50.08 445.28 47.46 441.81 47.46" transform="translate(-0.19 -0.08)"/><path d="M456.4 0.23 403.89 0.23C400.42 0.23 399.1 2.88 399.1 6.96 399.1 11.04 400.42 13.69 403.89 13.69L456.4 13.69C459.87 13.69 461.19 10.93 461.19 6.96 461.19 2.99 459.87 0.23 456.4 0.23" transform="translate(-0.19 -0.08)"/><path d="M530.5 39.25C527.22 39.25 524.64 39.83 523.26 41.25 522.627 41.8851 522.157 42.6639 521.89 43.52L521.65 44.13C521.562 44.352 521.454 44.566 521.33 44.77 521.038 45.2381 520.67 45.6539 520.24 46 517.63 48 511.78 48.78 504.42 48.78 493.34 48.78 485.96 46.62 485.96 41.7L485.96 18.51C485.96 13.51 493.33 11.31 504.42 11.31 515.51 11.31 523 13.46 523 18.51L523 21 495.43 21C492.85 21 491.69 22.69 491.69 26.45 491.69 30.21 492.85 31.78 495.43 31.78L528.56 31.78C535.17 31.78 538.56 28.97 538.56 22.12L538.56 18.12C538.57 6.9 529.14 0.08 504.42 0.08 479.7 0.08 470.17 6.9 470.17 18.17L470.17 42.88C470.17 54.14 479.7 60.96 504.42 60.96 518.08 60.96 538.68 58.96 538.68 44.13 538.68 40.73 535.68 39.25 530.5 39.25" transform="translate(-0.19 -0.08)"/><path d="M639.76 0.24C635 0.24 631.7 1.77 631.7 6L631.7 55C631.7 59.29 634.96 60.81 639.76 60.81 644.56 60.81 647.76 59.29 647.76 55L647.76 6C647.76 1.82 644.7 0.29 639.76 0.29" transform="translate(-0.19 -0.08)"/><path d="M692.24 0.24C687.45 0.24 684.24 1.77 684.24 5.95L684.24 55C684.24 59.29 687.5 60.81 692.24 60.81 696.98 60.81 700.24 59.29 700.24 55L700.24 6C700.24 1.82 697.19 0.29 692.24 0.29" transform="translate(-0.19 -0.08)"/><path d="M611.26 39.25C607.98 39.25 605.39 39.83 604.01 41.25 603.383 41.8881 602.917 42.6662 602.65 43.52L602.41 44.13C602.31 44.35 602.21 44.56 602.09 44.77 601.798 45.2381 601.43 45.6539 601 46 598.39 48 592.54 48.78 585.18 48.78 574.1 48.78 566.71 46.62 566.71 41.7L566.71 19.3C566.71 14.38 574.1 12.23 585.18 12.23 592.54 12.23 598.39 13.01 601 15 601.437 15.3701 601.805 15.8134 602.09 16.31 602.21 16.52 602.31 16.74 602.41 16.95L602.65 17.56C602.912 18.414 603.375 19.1925 604 19.83 605.38 21.21 608 21.83 611.25 21.83 616.4 21.83 619.43 20.35 619.43 16.95 619.44 2 598.84 0.08 585.18 0.08 560.46 0.08 550.92 6.9 550.92 18.16L550.92 42.88C550.92 54.14 560.46 60.96 585.18 60.96 598.84 60.96 619.44 58.96 619.44 44.13 619.44 40.73 616.44 39.25 611.26 39.25" transform="translate(-0.19 -0.08)"/><path d="M656.32 22.52C652.14 22.52 650.51 25.78 650.51 30.57 650.51 35.36 652.14 38.57 656.32 38.57L675.44 38.57C679.62 38.57 681.15 35.51 681.15 30.57 681.15 25.63 679.62 22.57 675.44 22.57Z" fill-rule="evenodd" transform="translate(-0.19 -0.08)"/><path d="M232 39C232 43.18 235.27 44.81 240.06 44.81 244.85 44.81 248 43.14 248 39L248 6.11C248 1.93 244.91 0.4 240 0.4 235.09 0.4 232 1.93 232 6.11Z" fill-rule="evenodd" transform="translate(-0.19 -0.08)"/><path d="M377.34 36.25C377.34 40.44 380.6 42.07 385.4 42.07 390.2 42.07 393.4 40.44 393.4 36.25L393.4 30.42C393.4 26.24 390.34 24.71 385.4 24.71 380.46 24.71 377.34 26.24 377.34 30.42Z" fill-rule="evenodd" transform="translate(-0.19 -0.08)"/></svg>